# xmcd
#
# Track frame offsets: 
#        180
#        18813
#        32138
#        45564
#        59565
#        69940
#        76575
#        89789
#        102039
#        118503
#        141220
#        163451
#        178613
#        199922
#        221042
#
# Disc length: 3145 seconds
#
# Revision: 0
# Processed by: cddbd v1.5.1PL0 Copyright (c) Steve Scherf et al.
# Submitted via: ExactAudioCopy v0.95a5
#
DISCID=d10c470f
DTITLE=Rick Ilowite and Keith Thomson - This Way - That Way
DYEAR=1994
DGENRE=
TTITLE0=The Ballad of Tony and Delia
TTITLE1=Walking the Caucasus
TTITLE2=Shake Sugaree
TTITLE3=Blind Arthur's Breakdown
TTITLE4=Duncan and Brady
TTITLE5=Buck Dance
TTITLE6=Slurf Song
TTITLE7=Long Tall Mamma
TTITLE8=Windy and Warm
TTITLE9=A Mile and a Half Away
TTITLE10=Folkedelic #3
TTITLE11=Banks of the River
TTITLE12=FLute Thing
TTITLE13=Calamity Jane
TTITLE14=Maple Leaf Rag
EXTD=
EXTT0=
EXTT1=
EXTT2=
EXTT3=
EXTT4=
EXTT5=
EXTT6=
EXTT7=
EXTT8=
EXTT9=
EXTT10=
EXTT11=
EXTT12=
EXTT13=
EXTT14=
PLAYORDER=
